<svg enable-background="new 0 0 39 40" viewBox="0 0 39 40" xmlns="http://www.w3.org/2000/svg" xmlns:xlink="http://www.w3.org/1999/xlink"><clipPath id="a"><path d="m.1 0h38.9v40h-38.9z"/></clipPath><clipPath id="b"><path d="m0 0h39v40h-39z"/></clipPath><g clip-path="url(#a)"><path clip-path="url(#b)" d="m22.6 19.8 15.1-15.1c.9-.9.9-2.5 0-3.4s-2.5-.9-3.4 0l-15.1 15.1-15.1-15.1c-.9-.9-2.5-.9-3.4 0s-.9 2.5 0 3.4l15.1 15.1-15.1 15.1c-.9.9-.9 2.5 0 3.4.5.5 1.1.7 1.7.7s1.2-.2 1.7-.7l15.1-15.1 15.1 15.1c.5.5 1.1.7 1.7.7s1.2-.2 1.7-.7c.9-.9.9-2.5 0-3.4z"/></g></svg>