<svg enable-background="new 0 0 60 60" viewBox="0 0 60 60" xmlns="http://www.w3.org/2000/svg" xmlns:xlink="http://www.w3.org/1999/xlink"><clipPath id="a"><circle cx="30" cy="30" r="30"/></clipPath><linearGradient id="b" gradientTransform="matrix(-15 34.998 -34.998 -15 2138.6726 909.4839)" gradientUnits="userSpaceOnUse" x1="0" x2="1" y1="60" y2="60"><stop offset="0" stop-color="#37aee2"/><stop offset="1" stop-color="#1e96c8"/></linearGradient><clipPath id="c"><path d="m0 0h60v60h-60z"/></clipPath><clipPath id="d"><path d="m42.65 18.227-28.897 11.141c-1.973.792-1.961 1.892-.359 2.383l7.415 2.315 17.168-10.832c.811-.491 1.555-.227.944.315l-13.911 12.553 12.09 8.933c1.38.761 2.376.367 2.719-1.281l4.921-23.191c.401-1.609-.325-2.518-1.305-2.518-.25 0-.516.06-.785.182"/></clipPath><linearGradient id="e" gradientTransform="matrix(4.3949 10.001 -11.9238 3.6862 746.32 -190.7662)" gradientUnits="userSpaceOnUse" x1="0" x2="1" y1="60.2288" y2="60.2288"><stop offset="0" stop-color="#eff7fc"/><stop offset="1" stop-color="#fff"/></linearGradient><path clip-path="url(#a)" d="m9.311-21.725-31.036 72.414 72.414 31.036 31.036-72.414z" fill="url(#b)"/><path clip-path="url(#c)" d="m24.5 43.75c-.972 0-.807-.367-1.142-1.292l-2.858-9.407 22-13.051" fill="#c8daea"/><path clip-path="url(#c)" d="m24.5 43.75c.75 0 1.081-.343 1.5-.75l4-3.89-4.99-3.008" fill="#a9c9dd"/><path clip-path="url(#d)" d="m1.043 21.364 14.727 33.512 40.108-12.399-14.727-33.512z" fill="url(#e)"/></svg>