<svg enable-background="new 0 0 60 60" viewBox="0 0 60 60" xmlns="http://www.w3.org/2000/svg" xmlns:xlink="http://www.w3.org/1999/xlink"><clipPath id="a"><path d="m0 0h60v60h-60z"/></clipPath><path clip-path="url(#a)" d="m30 60c16.569 0 30-13.431 30-30s-13.431-30-30-30-30 13.431-30 30 13.431 30 30 30" fill="#57bb63"/><path clip-path="url(#a)" d="m30.071 46.221c-2.86 0-5.547-.731-7.885-2.014l-9.032 2.87 2.944-8.685c-1.485-2.439-2.34-5.3-2.34-8.358 0-8.94 7.303-16.188 16.314-16.188 9.009 0 16.313 7.248 16.313 16.188s-7.304 16.187-16.314 16.187m0-29.797c-7.563 0-13.715 6.106-13.715 13.61 0 2.978.971 5.736 2.612 7.979l-1.713 5.054 5.27-1.675c2.166 1.422 4.761 2.251 7.546 2.251 7.563 0 13.716-6.105 13.716-13.609s-6.153-13.61-13.716-13.61m8.238 17.338c-.1-.165-.367-.265-.766-.463-.4-.198-2.367-1.159-2.733-1.29-.367-.133-.634-.199-.9.198s-1.033 1.29-1.266 1.555c-.234.265-.467.298-.867.1-.399-.199-1.688-.618-3.216-1.969-1.188-1.052-1.991-2.35-2.224-2.748-.233-.397-.025-.611.175-.809.18-.178.4-.463.6-.695.201-.232.267-.397.4-.662.134-.265.067-.496-.033-.695-.1-.198-.9-2.151-1.234-2.945-.333-.794-.665-.662-.899-.662-.233 0-.5-.033-.766-.033-.267 0-.701.099-1.067.496s-1.399 1.357-1.399 3.309c0 1.953 1.432 3.839 1.633 4.104.199.264 2.765 4.401 6.83 5.99 4.066 1.588 4.066 1.058 4.8.992.732-.066 2.364-.959 2.699-1.886.332-.927.332-1.722.233-1.887" fill="#fff"/></svg>