<svg enable-background="new -49 245.727 512 302.545" viewBox="-49 245.727 512 302.545" xmlns="http://www.w3.org/2000/svg"><g fill="#e74c3c"><path d="m137.182 455.182c0-6.982-4.655-11.636-11.636-11.636h-93.091c-6.982 0-11.636 4.655-11.636 11.636 0 6.982 4.655 11.636 11.636 11.636h93.091c6.981 0 11.636-4.654 11.636-11.636z"/><path d="m102.273 397c0-6.982-4.655-11.636-11.636-11.636h-93.092c-6.982 0-11.636 4.655-11.636 11.636 0 6.982 4.655 11.636 11.636 11.636h93.091c6.982 0 11.637-4.654 11.637-11.636z"/><path d="m67.364 338.818c0-6.982-4.655-11.636-11.636-11.636h-93.091c-6.982 0-11.636 4.655-11.636 11.636 0 6.982 4.655 11.636 11.636 11.636h93.091c6.981.001 11.636-4.654 11.636-11.636z"/><path d="m397.836 294.6-123.345 94.255c-12.8 9.309-30.255 9.309-43.055 0l-123.345-94.255c-4.655-3.491-12.8-3.491-16.291 2.327-3.491 4.655-3.491 12.8 2.327 16.291l124.509 94.255c10.473 8.145 23.273 11.636 34.909 11.636s25.6-3.491 34.909-11.636l123.346-94.255c4.655-3.491 5.818-11.636 2.327-16.291-3.491-4.654-11.636-5.818-16.291-2.327z"/><path d="m428.091 245.727h-372.364c-6.982 0-11.636 4.655-11.636 11.636 0 6.982 4.655 11.636 11.636 11.636h372.364c6.982 0 11.636 4.655 11.636 11.636v232.727c0 6.982-4.655 11.636-11.636 11.636h-372.364c-6.982 0-11.636 4.655-11.636 11.636 0 6.982 4.655 11.636 11.636 11.636h372.364c19.782 0 34.909-15.127 34.909-34.909v-232.725c0-19.781-15.127-34.909-34.909-34.909z"/><path d="m326.855 412.127c-4.655 4.655-4.655 11.636 0 16.291l69.818 69.818c2.327 2.327 5.818 3.491 8.145 3.491s5.818-1.164 8.145-3.491c4.655-4.655 4.655-11.636 0-16.291l-69.818-69.818c-4.654-4.654-11.636-4.654-16.29 0z"/></g></svg>