<svg enable-background="new 0 0 24 25" viewBox="0 0 24 25" xmlns="http://www.w3.org/2000/svg" xmlns:xlink="http://www.w3.org/1999/xlink"><clipPath id="a"><path d="m0 0h24v24.94h-24z"/></clipPath><clipPath id="b"><path d="m0 0h24v25h-24z"/></clipPath><g clip-path="url(#a)"><path clip-path="url(#b)" d="m4.336 1.017c-.957 0-1.82.906-2.582 1.711-.156.16-.305.32-.453.465-.731.73-.656 2.66.191 4.906 1.047 2.781 3.129 5.816 5.863 8.547 2.735 2.734 5.766 4.816 8.543 5.863 2.25.848 4.176.922 4.911.188.144-.145.3-.293.461-.446.824-.781 1.753-1.668 1.714-2.648-.027-.676-.519-1.403-1.461-2.156-2.816-2.262-3.601-1.461-4.906-.141l-.258.258c-.621.625-1.632.488-3.011-.406-.953-.622-2.133-1.633-3.504-3.004-3.383-3.383-4.469-5.454-3.406-6.516l.253-.25c1.329-1.309 2.125-2.094-.136-4.91-.758-.942-1.485-1.434-2.157-1.461-.023 0-.043 0-.062 0zm14.781 22.984c-.992 0-2.187-.25-3.5-.746-2.883-1.086-6.015-3.234-8.828-6.043-2.812-2.812-4.957-5.949-6.047-8.832-.988-2.617-.988-4.769-.008-5.754.145-.14.289-.293.438-.449.898-.945 1.937-2.016 3.258-1.957.929.035 1.828.613 2.75 1.758 2.715 3.379 1.492 4.582.074 5.98l-.254.25c-.23.231-.668 1.305 3.41 5.383 1.332 1.332 2.465 2.305 3.375 2.895.57.371 1.59.933 2.008.511l.254-.254c1.394-1.414 2.601-2.636 5.98.082 1.145.918 1.719 1.817 1.758 2.747.055 1.343-1.019 2.363-1.965 3.261-.152.149-.304.289-.445.43-.492.492-1.273.738-2.258.738z"/><path clip-path="url(#b)" d="m19.258 10.044c-.051 0-.102-.008-.153-.027-.203-.086-.304-.317-.218-.52.508-1.254.215-2.683-.739-3.644-.984-.981-2.496-1.254-3.765-.684-.199.09-.438 0-.528-.199-.089-.203-.003-.441.2-.531 1.57-.711 3.441-.367 4.656.851 1.187 1.184 1.547 2.953.914 4.508-.063.152-.211.246-.367.246z"/><path clip-path="url(#b)" d="m22.828 11.493c-.051 0-.101-.007-.152-.027-.203-.082-.305-.316-.219-.519 1.094-2.696.469-5.762-1.586-7.817-2.109-2.113-5.355-2.703-8.074-1.472-.203.085-.438 0-.531-.204-.09-.199 0-.437.199-.527 3.023-1.367 6.629-.711 8.973 1.637 2.285 2.281 2.972 5.691 1.761 8.683-.062.153-.215.246-.371.246z"/></g></svg>