<svg enable-background="new 0 120 1000 760" viewBox="0 120 1000 760" xmlns="http://www.w3.org/2000/svg" xmlns:xlink="http://www.w3.org/1999/xlink"><clipPath id="a"><path d="m0 120h1000v760h-1000z"/></clipPath><clipPath id="b"><path d="m0 120h1000v760h-1000z"/></clipPath><clipPath id="c"><path d="m0 120h1000v760h-1000z"/></clipPath><clipPath id="d"><path d="m0 120h1000v760h-1000z"/></clipPath><path clip-path="url(#a)" d="m803.44 679.32c-3.92 0-7.8-1.4-10.96-4.36l-184.04-172.64c-6.4-6.12-6.72-16.12-.8-22.68 6.12-6.4 16.28-6.72 22.68-.6l184.2 172.64c6.4 6.08 6.72 16.24.64 22.64-3.12 3.32-7.36 5-11.72 5z"/><path clip-path="url(#b)" d="m188.92 679.32c-4.4 0-8.6-1.68-11.72-5-6.12-6.4-5.8-16.56.6-22.64l184.24-172.64c6.56-6.12 16.72-5.8 22.64.6 6.12 6.56 5.8 16.56-.6 22.68l-184.24 172.64c-3.12 2.96-7.04 4.36-10.92 4.36z"/><path clip-path="url(#c)" d="m80 166.52c-26.4 0-47.96 21.56-47.96 47.96v545.48c0 26.56 21.56 47.96 47.96 47.96h832.36c26.56 0 47.96-21.4 47.96-47.96v-545.48c0-26.4-21.4-47.96-47.96-47.96zm832.36 673.44h-832.36c-44.08 0-80-35.76-80-80v-545.48c0-44.04 35.92-80 80-80h832.36c44.04 0 80 35.96 80 80v545.48c0 44.24-35.96 80-80 80z"/><path clip-path="url(#d)" d="m496.24 567.64c-21.4 0-42.64-7.04-58.72-21.12l-410.96-358.44c-6.72-5.76-7.36-15.92-1.56-22.64s15.92-7.2 22.64-1.56l410.8 358.44c20.48 17.8 55 17.8 75.48 0l410.28-357.84c6.72-5.76 16.72-5.16 22.68 1.56 5.76 6.72 5.16 16.72-1.56 22.52l-410.32 357.8c-16.24 14.24-37.48 21.28-58.76 21.28z"/></svg>