<svg enable-background="new -49 141 512 512" viewBox="-49 141 512 512" xmlns="http://www.w3.org/2000/svg" xmlns:xlink="http://www.w3.org/1999/xlink"><linearGradient id="a"><stop offset="0" stop-color="#ffc107"/><stop offset=".507" stop-color="#f44336"/><stop offset=".99" stop-color="#9c27b0"/></linearGradient><linearGradient id="b" gradientTransform="matrix(32 0 0 -32 3038 25410)" gradientUnits="userSpaceOnUse" x1="-95.0041" x2="-81.9334" xlink:href="#a" y1="775.1208" y2="788.1917"/><linearGradient id="c" gradientTransform="matrix(32 0 0 -32 3038 25410)" gradientUnits="userSpaceOnUse" x1="-91.2971" x2="-85.6404" xlink:href="#a" y1="778.8279" y2="784.4846"/><linearGradient id="d" gradientTransform="matrix(32 0 0 -32 3038 25410)" gradientUnits="userSpaceOnUse" x1="-84.5456" x2="-83.7919" xlink:href="#a" y1="785.5793" y2="786.3331"/><path d="m303 141h-192c-88.352 0-160 71.648-160 160v192c0 88.352 71.648 160 160 160h192c88.352 0 160-71.648 160-160v-192c0-88.352-71.648-160-160-160zm112 352c0 61.76-50.24 112-112 112h-192c-61.76 0-112-50.24-112-112v-192c0-61.76 50.24-112 112-112h192c61.76 0 112 50.24 112 112z" fill="url(#b)"/><path d="m207 269c-70.688 0-128 57.312-128 128s57.312 128 128 128 128-57.312 128-128-57.312-128-128-128zm0 208c-44.096 0-80-35.904-80-80 0-44.128 35.904-80 80-80s80 35.872 80 80c0 44.096-35.904 80-80 80z" fill="url(#c)"/><circle cx="344.6" cy="259.4" fill="url(#d)" r="17.056"/></svg>