<svg enable-background="new 0 0 228.2 30.4" viewBox="0 0 228.2 30.4" xmlns="http://www.w3.org/2000/svg"><g fill="#fff"><path d="m184.5 12.6c-5.8-1.2-10.5-2.4-10.5-6 0-3.4 4.3-5.6 10.1-5.6 3.6 0 12.3 5.2 12.3 5.2v-4s-9-1.8-13-1.8c-9.4 0-13.6 3.6-13.6 8.2 0 5.1 6.6 6.4 13.3 7.8 6.6 1.3 10.7 2.9 10.7 6.7 0 4-4.9 6.5-11.2 5.9-5-.5-12.9-6.2-12.9-6.2v4.3s9.6 2.6 13.9 2.6c10.4 0 14.9-3.7 14.9-8.4-.1-4.9-7-7.2-14-8.7z"/><path d="m60.3 5.6 10.2-3.2h6.2v26.4h4v-26.4h6.2l10.2 3.2v-4h-36.8z"/><path d="m146.1 1.6 1.4 2.3-18 24.9h6.5l4-12.7h14.9l7.6 12.7h4.6l-16.4-27.2zm-5.8 13.8 7.7-10.6 6.4 10.6z"/><path d="m115.3 29.7c-.4 0-.8 0-1.2 0-1.4 0-2.8-.2-4.1-.6-4.3-1.1-6.4-5.4-6.4-10.9v-6c0-5.5 2.1-9.9 6.4-10.9 1.4-.3 2.7-.5 4.2-.5s2.9.2 4.2.5c1.3 1 4 3.4 6.1 7.4l3.4-1.9c-3.1-4.2-8.2-6.7-13.7-6.7-9.2-.1-16.6 6.7-16.6 15.1s7.4 15.2 16.6 15.2c3.6 0 7-1.1 9.8-2.9 2.4-1.5 4.3-3.5 5.4-6.1h-4.8c-2.2 4.4-6 8-9.3 8.3z"/><path d="m43.3 0c-9.1 0-16.6 6.8-16.6 15.2s7.4 15.2 16.6 15.2c9.1 0 16.6-6.8 16.6-15.2s-7.5-15.2-16.6-15.2zm10.5 18.2c0 5.4-2.1 9.8-6.4 10.9-1.3.3-2.7.5-4.2.5-1.4 0-2.8-.2-4.2-.5-4.3-1.1-6.4-5.5-6.4-10.9v-6c0-5.4 2.1-9.8 6.4-10.9 1.3-.3 2.7-.5 4.2-.5 1.4 0 2.8.2 4.2.5 4.3 1.1 6.4 5.5 6.4 10.9z"/><path d="m216.9 2.4 11.3 2.8v-3.6h-25v27.2h25v-3.6l-11.3 2.8h-9.6v-13.2h5.2l8.6 1v-2.8l-8.6 1.1h-5.2v-11.7z"/><path d="m0 28.8h4v-14h5.7l8.6 1v-2.8l-8.6 1.1h-5.7v-11.7h10.1l11.3 2.8v-3.6h-25.4z"/></g></svg>